<svg width="1325" height="316" viewBox="0 0 1325 316" fill="none" xmlns="http://www.w3.org/2000/svg">
<path d="M161 309C161 306.239 163.238 304 166 304H183V309H161V309Z" fill="#F6D5A9"/>
<rect width="20.223" height="48.4798" rx="10.1115" transform="matrix(0.974853 -0.222847 0.299646 0.95405 156.047 263.507)" fill="#F6D5A9"/>
<path d="M242.289 309C242.289 306.239 240.05 304 237.289 304H220.289V309H242.289V309Z" fill="#F6D5A9"/>
<rect width="20.223" height="48.4798" rx="10.1115" transform="matrix(-0.974853 -0.222847 -0.299646 0.95405 247.241 263.507)" fill="#F6D5A9"/>
<path d="M180.149 231.051C181.907 220.629 190.932 213 201.5 213V213C212.068 213 221.093 220.629 222.851 231.051L230.261 274.981C233.263 292.776 219.547 309 201.5 309V309C183.453 309 169.737 292.776 172.739 274.981L180.149 231.051Z" fill="#D69A6E"/>
<path d="M190.344 299H179.938C177.064 299 173 303.477 173 309H197.281C197.281 303.477 193.218 299 190.344 299Z" fill="white"/>
<path d="M179.07 309C179.07 306 179.07 301 181.094 300" stroke="black"/>
<path d="M190.199 309C190.199 306 190.199 301 188.176 300" stroke="black"/>
<path d="M223.344 299H212.938C210.064 299 206 303.477 206 309H230.281C230.281 303.477 226.218 299 223.344 299Z" fill="white"/>
<path d="M212.07 309C212.07 306 212.07 301 214.094 300" stroke="black"/>
<path d="M223.199 309C223.199 306 223.199 301 221.176 300" stroke="black"/>
<path d="M180 257C189.14 254.471 198.109 244.623 201.786 237L201.846 305C194.574 291.114 180.511 256.842 180 257Z" fill="#FCEEC0"/>
<path d="M223 256C214.365 253.438 205.259 244.723 201.786 237L201.846 305C208.716 290.931 222.517 255.839 223 256Z" fill="#FCEEC0"/>
<path d="M168.507 200.307C164.604 179.352 180.685 160 202 160V160C223.315 160 239.396 179.352 235.493 200.307L232.31 217.394C230.193 228.759 220.276 237 208.716 237H195.284C183.724 237 173.807 228.759 171.69 217.394L168.507 200.307Z" fill="#F6D5A9"/>
<ellipse cx="178.649" cy="168.372" rx="7.53545" ry="7.37174" fill="#482712"/>
<ellipse cx="157.55" cy="194.91" rx="10.5496" ry="10.3204" fill="#482712"/>
<path d="M150.014 187.538L172.621 163.949L186 170L173.684 223.5L150.014 187.538Z" fill="#482712"/>
<path d="M147.184 220L147 194.91L166.684 200L173.684 219.5L147.184 220Z" fill="#482712"/>
<ellipse cx="160.685" cy="220" rx="13.5" ry="13" fill="#482712"/>
<ellipse rx="7.53545" ry="7.37174" transform="matrix(-1 0 0 1 225.535 168.372)" fill="#482712"/>
<ellipse rx="10.5496" ry="10.3204" transform="matrix(-1 0 0 1 246.634 194.91)" fill="#482712"/>
<path d="M254.17 187.538L231.564 163.949L218.184 170L230.5 223.5L254.17 187.538Z" fill="#482712"/>
<path d="M257 220L257.184 194.91L237.5 200L230.5 219.5L257 220Z" fill="#482712"/>
<ellipse rx="13.5" ry="13" transform="matrix(-1 0 0 1 243.5 220)" fill="#482712"/>
<circle cx="189" cy="189" r="3" fill="black"/>
<circle cx="215" cy="189" r="3" fill="black"/>
<circle cx="202" cy="217" r="10" fill="white"/>
<path d="M202.756 216.127C202.357 216.588 201.643 216.588 201.244 216.127L195.639 209.655C195.078 209.007 195.538 208 196.395 208L207.605 208C208.462 208 208.922 209.007 208.361 209.655L202.756 216.127Z" fill="black"/>
<path d="M202 215V217.667C202 218.333 200.133 221 198 221" stroke="black"/>
<path d="M202 215V217.667C202 218.333 203.867 221 206 221" stroke="black"/>
<path d="M1032.86 310.227C1032.86 308.091 1034.59 306.359 1036.72 306.359H1051.71V310.227H1032.86V310.227Z" fill="#482712"/>
<rect width="17.2538" height="37.8783" rx="8.62691" transform="matrix(0.979382 -0.202019 0.328725 0.944426 1028.61 275.041)" fill="#482712"/>
<path d="M1102.53 310.227C1102.53 308.091 1100.8 306.359 1098.67 306.359H1083.68V310.227H1102.53V310.227Z" fill="#482712"/>
<rect width="17.2538" height="37.8783" rx="8.62692" transform="matrix(-0.979382 -0.202019 -0.328725 0.944426 1106.78 275.041)" fill="#482712"/>
<path d="M1049 251.4C1050.67 242.458 1058.47 235.977 1067.57 235.977V235.977C1076.67 235.977 1084.47 242.458 1086.15 251.4L1091.71 281.159C1094.53 296.267 1082.94 310.227 1067.57 310.227V310.227C1052.2 310.227 1040.61 296.267 1043.43 281.159L1049 251.4Z" fill="#482712"/>
<path d="M1058.01 302.492H1049.09C1046.63 302.492 1043.14 305.955 1043.14 310.227H1063.96C1063.96 305.955 1060.47 302.492 1058.01 302.492Z" fill="white"/>
<path d="M1048.35 310.227C1048.35 307.906 1048.35 304.039 1050.08 303.266" stroke="black"/>
<path d="M1057.89 310.227C1057.89 307.906 1057.89 304.039 1056.15 303.266" stroke="black"/>
<path d="M1086.29 302.492H1077.37C1074.91 302.492 1071.43 305.955 1071.43 310.227H1092.24C1092.24 305.955 1088.76 302.492 1086.29 302.492Z" fill="white"/>
<path d="M1076.63 310.227C1076.63 307.906 1076.63 304.039 1078.37 303.266" stroke="black"/>
<path d="M1086.17 310.227C1086.17 307.906 1086.17 304.039 1084.44 303.266" stroke="black"/>
<path d="M1049 266.469C1056.83 264.513 1064.52 256.896 1067.67 251L1067.73 303.594C1061.49 292.853 1049.44 266.346 1049 266.469Z" fill="white"/>
<path d="M1085.86 265.695C1078.46 263.714 1070.65 256.973 1067.67 251L1067.73 303.594C1073.61 292.712 1085.44 265.571 1085.86 265.695Z" fill="white"/>
<path d="M1083 244H1052L1054.92 237H1080.08L1083 244Z" fill="white"/>
<ellipse cx="1068" cy="213" rx="32" ry="29" fill="#482712"/>
<path d="M1073 206.396C1073 210.337 1077.76 213.532 1082.08 213.952C1087.67 214.495 1089 210.337 1089 206.396C1089 202.454 1084.84 198 1080.78 198C1076.72 198 1073 202.454 1073 206.396Z" fill="white"/>
<path d="M1062 206.921C1062 211.108 1057.24 214.503 1052.92 214.949C1047.33 215.526 1046 211.108 1046 206.921C1046 202.733 1050.16 198 1054.22 198C1058.28 198 1062 202.733 1062 206.921Z" fill="white"/>
<circle cx="1055" cy="209" r="3" fill="black"/>
<circle cx="1081" cy="209" r="3" fill="black"/>
<path d="M1030.23 196.457C1030.23 188.456 1034.04 187.047 1037.97 188.068C1043.47 182.453 1047.87 189.521 1047.21 194.46C1050.92 196.061 1050.94 205.69 1047.21 206.459C1049.69 211.26 1048.24 215.127 1047.21 216.46C1048.45 221.261 1046.7 223.795 1045.67 224.461C1046.91 229.262 1045.16 233.129 1044.13 234.463C1046.6 242.464 1044.13 245.798 1042.58 246.465C1041.35 254.466 1036.92 255.132 1034.86 254.466C1029.92 260.867 1026.62 257.133 1025.59 254.466C1017.87 254.466 1017.87 246.465 1017.87 244.464C1011.7 238.063 1014.27 229.796 1016.33 226.462C1013.86 218.461 1019.42 212.46 1022.5 210.459C1020.03 200.858 1026.62 197.124 1030.23 196.457Z" fill="black"/>
<path d="M1105.77 196.457C1105.77 188.456 1101.96 187.047 1098.03 188.068C1092.53 182.453 1088.13 189.521 1088.79 194.46C1085.08 196.061 1085.06 205.69 1088.79 206.459C1086.31 211.26 1087.76 215.127 1088.79 216.46C1087.55 221.261 1089.3 223.795 1090.33 224.461C1089.09 229.262 1090.84 233.129 1091.87 234.463C1089.4 242.464 1091.87 245.798 1093.42 246.465C1094.65 254.466 1099.08 255.132 1101.14 254.466C1106.08 260.867 1109.38 257.133 1110.41 254.466C1118.13 254.466 1118.13 246.465 1118.13 244.464C1124.3 238.063 1121.73 229.796 1119.67 226.462C1122.14 218.461 1116.58 212.46 1113.5 210.459C1115.97 200.858 1109.38 197.124 1105.77 196.457Z" fill="black"/>
<circle cx="1068" cy="225" r="10" fill="white"/>
<path d="M1068.76 224.127C1068.36 224.588 1067.64 224.588 1067.24 224.127L1061.64 217.655C1061.08 217.007 1061.54 216 1062.39 216L1073.61 216C1074.46 216 1074.92 217.007 1074.36 217.655L1068.76 224.127Z" fill="black"/>
<path d="M1068 223V225.667C1068 226.333 1066.13 229 1064 229" stroke="black"/>
<path d="M1068 223V225.667C1068 226.333 1069.87 229 1072 229" stroke="black"/>
<path d="M1181.27 186.239C1187.34 180.576 1188.5 204.337 1188.5 204.337C1182.82 202.679 1171.04 208.98 1169.41 209.398C1166.84 204.591 1175.19 191.902 1181.27 186.239Z" fill="#C2C2C2"/>
<path fill-rule="evenodd" clip-rule="evenodd" d="M1189.54 204.266C1189.54 204.266 1189.54 204.267 1188.5 204.337L1189.54 204.266L1189.61 205.675L1188.16 205.253C1186.99 204.91 1185.39 204.958 1183.53 205.31C1181.69 205.657 1179.7 206.279 1177.8 206.979C1175.9 207.677 1174.12 208.441 1172.71 209.062C1172.49 209.158 1172.27 209.252 1172.07 209.342C1171.62 209.538 1171.22 209.715 1170.88 209.861C1170.42 210.06 1169.97 210.243 1169.67 210.322L1168.85 210.532L1168.48 209.843C1167.68 208.339 1167.78 206.369 1168.32 204.346C1168.86 202.288 1169.89 199.997 1171.18 197.716C1173.75 193.158 1177.42 188.485 1180.54 185.574C1181.42 184.753 1182.45 184.255 1183.55 184.448C1184.58 184.63 1185.32 185.368 1185.85 186.155C1186.92 187.749 1187.66 190.346 1188.18 192.964C1188.72 195.622 1189.05 198.448 1189.26 200.602C1189.36 201.681 1189.43 202.595 1189.48 203.24C1189.5 203.562 1189.51 203.818 1189.52 203.993C1189.53 204.081 1189.53 204.149 1189.53 204.195L1189.54 204.248L1189.54 204.266ZM1187.38 203.149C1187.34 202.541 1187.28 201.744 1187.19 200.824C1186.99 198.7 1186.66 195.94 1186.14 193.365C1185.62 190.75 1184.93 188.469 1184.07 187.201C1183.64 186.557 1183.29 186.368 1183.1 186.334C1182.98 186.312 1182.63 186.309 1182 186.904C1179.04 189.656 1175.5 194.159 1173.02 198.563C1171.78 200.763 1170.82 202.899 1170.34 204.749C1169.97 206.13 1169.89 207.261 1170.06 208.121C1170.39 207.981 1170.77 207.812 1171.21 207.62C1171.41 207.53 1171.63 207.434 1171.86 207.333C1173.28 206.707 1175.11 205.921 1177.07 205.199C1179.03 204.478 1181.15 203.81 1183.17 203.43C1184.61 203.158 1186.06 203.021 1187.38 203.149Z" fill="white"/>
<path d="M1205.43 186.239C1199.36 180.577 1197.5 203.838 1197.5 203.838C1203.18 202.18 1215.66 208.98 1217.29 209.398C1219.86 204.591 1211.51 191.902 1205.43 186.239Z" fill="#C2C2C2"/>
<path fill-rule="evenodd" clip-rule="evenodd" d="M1196.46 203.739C1196.46 203.739 1196.46 203.739 1197.5 203.837L1196.46 203.739L1196.35 205.188L1197.84 204.753C1199 204.414 1200.63 204.485 1202.56 204.884C1204.47 205.277 1206.55 205.962 1208.54 206.724C1210.53 207.484 1212.39 208.311 1213.88 208.979C1214.08 209.073 1214.28 209.164 1214.48 209.252C1214.97 209.474 1215.41 209.673 1215.78 209.835C1216.26 210.047 1216.72 210.242 1217.03 210.322L1217.85 210.533L1218.22 209.843C1219.02 208.34 1218.92 206.369 1218.38 204.346C1217.84 202.288 1216.81 199.997 1215.52 197.716C1212.95 193.158 1209.28 188.486 1206.16 185.574C1205.27 184.747 1204.25 184.259 1203.15 184.422C1202.11 184.577 1201.34 185.273 1200.77 186.042C1199.62 187.588 1198.79 190.125 1198.17 192.682C1197.55 195.279 1197.12 198.044 1196.85 200.151C1196.72 201.207 1196.62 202.101 1196.56 202.733C1196.53 203.049 1196.5 203.299 1196.49 203.471C1196.48 203.557 1196.47 203.624 1196.47 203.669L1196.47 203.721L1196.46 203.738L1196.46 203.739ZM1198.66 202.653C1198.72 202.066 1198.8 201.305 1198.92 200.431C1199.18 198.354 1199.6 195.658 1200.2 193.148C1200.81 190.597 1201.58 188.38 1202.49 187.158C1202.95 186.542 1203.32 186.35 1203.54 186.317C1203.71 186.292 1204.07 186.315 1204.7 186.904C1207.66 189.656 1211.2 194.159 1213.68 198.563C1214.92 200.763 1215.88 202.899 1216.36 204.75C1216.73 206.126 1216.81 207.254 1216.64 208.113C1216.64 208.111 1216.63 208.109 1216.63 208.107C1216.27 207.95 1215.85 207.759 1215.36 207.539C1215.16 207.45 1214.96 207.357 1214.74 207.26C1213.25 206.587 1211.34 205.739 1209.29 204.954C1207.25 204.171 1205.04 203.44 1202.96 203.012C1201.48 202.708 1200 202.541 1198.66 202.653Z" fill="white"/>
<path d="M1151 314.533C1151 312.311 1152.8 310.51 1155.02 310.51H1173V314.533H1151V314.533Z" fill="#C2C2C2"/>
<rect width="20.0452" height="39.9531" rx="10.0226" transform="matrix(0.983499 -0.180913 0.363596 0.931557 1146.05 277.925)" fill="#C2C2C2"/>
<path d="M1232.29 314.533C1232.29 312.311 1230.49 310.51 1228.27 310.51H1210.29V314.533H1232.29V314.533Z" fill="#C2C2C2"/>
<rect width="20.0452" height="39.9531" rx="10.0226" transform="matrix(-0.983499 -0.180913 -0.363596 0.931557 1237.24 277.925)" fill="#C2C2C2"/>
<path d="M1169.44 255.199C1171.63 244.76 1180.83 237.283 1191.5 237.283V237.283C1202.17 237.283 1211.37 244.76 1213.56 255.199L1218.92 280.767C1222.57 298.175 1209.29 314.533 1191.5 314.533V314.533C1173.71 314.533 1160.43 298.175 1164.08 280.767L1169.44 255.199Z" fill="white"/>
<path d="M1170 275.908C1179.14 273.873 1188.11 265.949 1191.79 259.814L1191.85 314.533C1184.57 303.359 1170.51 275.781 1170 275.908Z" fill="white"/>
<path d="M1213 275.104C1204.37 273.042 1195.26 266.029 1191.79 259.814L1191.85 314.533C1198.72 303.212 1212.52 274.974 1213 275.104Z" fill="white"/>
<path d="M1180.34 306.486H1169.94C1167.06 306.486 1163 310.089 1163 314.533H1187.28C1187.28 310.089 1183.22 306.486 1180.34 306.486Z" fill="white"/>
<path d="M1169.07 314.533C1169.07 312.119 1169.07 308.096 1171.09 307.291" stroke="black"/>
<path d="M1180.2 314.533C1180.2 312.119 1180.2 308.096 1178.18 307.291" stroke="black"/>
<path d="M1213.34 306.486H1202.94C1200.06 306.486 1196 310.089 1196 314.533H1220.28C1220.28 310.089 1216.22 306.486 1213.34 306.486Z" fill="white"/>
<path d="M1202.07 314.533C1202.07 312.119 1202.07 308.096 1204.09 307.291" stroke="black"/>
<path d="M1213.2 314.533C1213.2 312.119 1213.2 308.096 1211.18 307.291" stroke="black"/>
<path d="M1168.37 206.106C1168.49 203.988 1170.24 202.333 1172.36 202.333H1214.64C1216.76 202.333 1218.51 203.988 1218.63 206.106L1220.56 239.97C1221.34 253.738 1210.39 265.333 1196.6 265.333H1190.4C1176.61 265.333 1165.66 253.738 1166.44 239.97L1168.37 206.106Z" fill="white"/>
<circle cx="1180" cy="216.338" r="3" fill="black"/>
<circle cx="1206" cy="216.338" r="3" fill="black"/>
<path d="M1175 205.838C1181.4 205.038 1185 207.505 1186 208.838C1189.6 213.238 1187.5 214.838 1186 213.338C1184.8 212.538 1180.83 215.005 1179 216.338V214.838C1176.6 214.838 1173.33 217.838 1172 219.338C1172 218.538 1173 216.671 1173.5 215.838C1172.3 215.038 1166.67 216.505 1164 217.338C1164.4 213.738 1169.17 212.171 1171.5 211.838L1168.5 209.838C1170.5 207.838 1175.33 208.338 1177.5 208.838L1175 205.838Z" fill="#DEDBDA"/>
<path d="M1210.99 205.838C1204.59 205.038 1200.99 207.505 1199.99 208.838C1196.39 213.238 1198.49 214.838 1199.99 213.338C1201.19 212.538 1205.15 215.005 1206.99 216.338V214.838C1209.39 214.838 1212.65 217.838 1213.99 219.338C1213.99 218.538 1212.99 216.671 1212.49 215.838C1213.69 215.038 1219.32 216.505 1221.99 217.338C1221.59 213.738 1216.82 212.171 1214.49 211.838L1217.49 209.838C1215.49 207.838 1210.65 208.338 1208.49 208.838L1210.99 205.838Z" fill="#DEDBDA"/>
<path d="M1174 230.14C1179.41 224.485 1190.58 226.097 1194 228.825V237.276C1188.77 237.871 1183.02 246.866 1181 250.338C1180.25 250.04 1179.13 246.259 1179.13 245.019C1177.83 245.019 1176.41 247.747 1175.87 249.111C1175.31 244.647 1176.72 239.315 1177.5 237.207C1176.57 236.612 1175.4 238.447 1174.93 239.439C1174.19 237.654 1175.71 233.983 1176.57 232.371C1176.01 230.884 1174.62 230.264 1174 230.14Z" fill="#E5E5E5"/>
<path d="M1214 230.186C1208.73 224.475 1197.33 226.086 1194 228.841V237.325C1199.09 237.926 1204.3 246.831 1206.27 250.338C1207 250.037 1209 246.468 1209 245.215C1210.27 245.215 1211.65 247.971 1212.18 249.348C1212.73 244.84 1211.35 239.454 1210.59 237.325C1211.5 236.724 1212.64 238.577 1213.09 239.579C1213.82 237.776 1212.33 234.069 1211.5 232.44C1212.05 230.937 1213.39 230.311 1214 230.186Z" fill="#E5E5E5"/>
<path d="M1194 237.338V240.338C1193.67 241.671 1191.8 244.338 1187 244.338" stroke="black"/>
<path d="M1194 237.338V240.338C1194.33 241.671 1196.2 244.338 1201 244.338" stroke="black"/>
<ellipse cx="1194" cy="233.338" rx="6" ry="4" fill="black"/>
<path d="M460.744 180.815C464.52 173.419 472.833 194.411 472.833 194.411C466.927 194.793 458.889 205.683 457.508 206.629C453.447 202.99 456.967 188.212 460.744 180.815Z" fill="#C2C2C2"/>
<path fill-rule="evenodd" clip-rule="evenodd" d="M473.791 194.007C473.791 194.007 473.791 194.007 472.833 194.412L473.791 194.007L474.3 195.293L472.827 195.388C471.641 195.465 470.233 196.086 468.689 197.134C467.165 198.168 465.619 199.541 464.181 200.963C462.747 202.381 461.448 203.821 460.408 204.981C460.351 205.045 460.294 205.108 460.238 205.17C459.791 205.669 459.391 206.116 459.059 206.471C458.717 206.837 458.355 207.21 458.061 207.412L457.364 207.889L456.782 207.367C455.512 206.229 454.94 204.34 454.752 202.256C454.56 200.136 454.749 197.63 455.179 195.047C456.038 189.886 457.891 184.242 459.833 180.439C460.371 179.384 461.129 178.564 462.182 178.325C463.201 178.093 464.132 178.494 464.871 179.018C466.354 180.068 467.828 182.151 469.103 184.312C470.401 186.513 471.572 188.938 472.417 190.804C472.84 191.739 473.183 192.538 473.42 193.103C473.539 193.386 473.631 193.611 473.694 193.766C473.725 193.843 473.75 193.903 473.766 193.944L473.785 193.99L473.791 194.006L473.791 194.007ZM471.407 193.684C471.184 193.157 470.888 192.472 470.534 191.691C469.702 189.852 468.559 187.491 467.307 185.368C466.031 183.205 464.719 181.427 463.581 180.622C463.01 180.217 462.671 180.192 462.513 180.228C462.389 180.256 462.061 180.398 461.655 181.192C459.82 184.786 458.025 190.23 457.195 195.216C456.78 197.707 456.614 200.04 456.786 201.946C456.912 203.336 457.21 204.409 457.648 205.156C457.95 204.83 458.312 204.426 458.733 203.957C458.788 203.895 458.844 203.833 458.901 203.769C459.942 202.609 461.28 201.125 462.766 199.655C464.249 198.188 465.906 196.708 467.593 195.564C468.812 194.737 470.108 194.042 471.407 193.684Z" fill="#7C7C7C"/>
<path d="M441.899 180.048C438.123 172.651 429.81 193.644 429.81 193.644C435.716 194.025 443.754 204.915 445.135 205.862C449.196 202.222 445.676 187.444 441.899 180.048Z" fill="#C2C2C2"/>
<path fill-rule="evenodd" clip-rule="evenodd" d="M428.852 193.239C428.852 193.239 428.852 193.239 429.81 193.644L428.852 193.239L428.343 194.525L429.816 194.62C431.002 194.697 432.41 195.318 433.954 196.366C435.478 197.4 437.024 198.773 438.462 200.195C439.896 201.613 441.196 203.053 442.235 204.213C442.293 204.277 442.349 204.34 442.405 204.402C442.852 204.901 443.253 205.348 443.585 205.703C443.926 206.069 444.289 206.442 444.583 206.644L445.279 207.121L445.861 206.599C447.132 205.461 447.703 203.572 447.891 201.488C448.083 199.368 447.895 196.862 447.465 194.279C446.606 189.118 444.752 183.473 442.81 179.671C442.272 178.616 441.515 177.796 440.461 177.557C439.442 177.325 438.512 177.726 437.773 178.25C436.29 179.3 434.815 181.383 433.541 183.544C432.243 185.745 431.071 188.17 430.226 190.036C429.803 190.971 429.46 191.77 429.223 192.335C429.105 192.618 429.012 192.843 428.949 192.998C428.918 193.075 428.894 193.135 428.877 193.176L428.859 193.222L428.853 193.238L428.852 193.239ZM431.236 192.916C431.459 192.389 431.756 191.704 432.109 190.923C432.942 189.084 434.084 186.723 435.336 184.6C436.612 182.437 437.924 180.659 439.062 179.854C439.633 179.449 439.972 179.424 440.13 179.46C440.254 179.488 440.583 179.629 440.989 180.424C442.824 184.018 444.619 189.461 445.449 194.448C445.863 196.939 446.029 199.272 445.857 201.178C445.731 202.568 445.434 203.641 444.996 204.388C444.693 204.062 444.331 203.658 443.91 203.189C443.855 203.127 443.799 203.065 443.742 203.001C442.702 201.841 441.364 200.357 439.877 198.887C438.395 197.42 436.737 195.94 435.05 194.796C433.831 193.969 432.535 193.274 431.236 192.916Z" fill="#7C7C7C"/>
<path d="M410 309.195C410 306.973 411.801 305.172 414.023 305.172H432V309.195H410V309.195Z" fill="#C2C2C2"/>
<rect width="20.0452" height="39.9531" rx="10.0226" transform="matrix(0.983499 -0.180913 0.363596 0.931557 405.047 272.587)" fill="#C2C2C2"/>
<path d="M491.289 309.195C491.289 306.973 489.487 305.172 487.265 305.172H469.289V309.195H491.289V309.195Z" fill="#C2C2C2"/>
<rect width="20.0452" height="39.9531" rx="10.0226" transform="matrix(-0.983499 -0.180913 -0.363596 0.931557 496.241 272.587)" fill="#C2C2C2"/>
<path d="M428.439 249.861C430.627 239.422 439.833 231.945 450.5 231.945V231.945C461.167 231.945 470.373 239.422 472.561 249.861L477.921 275.429C481.571 292.837 468.286 309.195 450.5 309.195V309.195C432.714 309.195 419.429 292.837 423.079 275.429L428.439 249.861Z" fill="#7C7C7C"/>
<path d="M429 270.57C438.14 268.536 447.109 260.611 450.786 254.477L450.846 309.195C443.574 298.021 429.511 270.443 429 270.57Z" fill="#7C7C7C"/>
<path d="M472 269.766C463.365 267.704 454.259 260.691 450.786 254.477L450.846 309.195C457.716 297.874 471.517 269.636 472 269.766Z" fill="#7C7C7C"/>
<path d="M439.344 301.148H428.938C426.064 301.148 422 304.751 422 309.195H446.281C446.281 304.751 442.218 301.148 439.344 301.148Z" fill="white"/>
<path d="M428.07 309.195C428.07 306.781 428.07 302.758 430.094 301.953" stroke="black"/>
<path d="M439.199 309.195C439.199 306.781 439.199 302.758 437.176 301.953" stroke="black"/>
<path d="M472.344 301.148H461.938C459.064 301.148 455 304.751 455 309.195H479.281C479.281 304.751 475.218 301.148 472.344 301.148Z" fill="white"/>
<path d="M461.07 309.195C461.07 306.781 461.07 302.758 463.094 301.953" stroke="black"/>
<path d="M472.199 309.195C472.199 306.781 472.199 302.758 470.176 301.953" stroke="black"/>
<path d="M427.341 200.74C427.478 198.636 429.225 197 431.333 197H473.667C475.776 197 477.522 198.636 477.659 200.74L479.334 226.439C480.236 240.279 469.254 252 455.385 252H449.615C435.746 252 424.764 240.279 425.666 226.439L427.341 200.74Z" fill="#7C7C7C"/>
<circle cx="440" cy="213" r="3" fill="black"/>
<circle cx="466" cy="213" r="3" fill="black"/>
<path d="M435 202.5C441.4 201.7 445 204.167 446 205.5C449.6 209.9 447.5 211.5 446 210C444.8 209.2 440.833 211.667 439 213V211.5C436.6 211.5 433.333 214.5 432 216C432 215.2 433 213.333 433.5 212.5C432.3 211.7 426.667 213.167 424 214C424.4 210.4 429.167 208.833 431.5 208.5L428.5 206.5C430.5 204.5 435.333 205 437.5 205.5L435 202.5Z" fill="#DEDBDA"/>
<path d="M470.988 202.5C464.588 201.7 460.988 204.167 459.988 205.5C456.388 209.9 458.488 211.5 459.988 210C461.188 209.2 465.154 211.667 466.988 213V211.5C469.388 211.5 472.654 214.5 473.988 216C473.988 215.2 472.988 213.333 472.488 212.5C473.688 211.7 479.321 213.167 481.988 214C481.588 210.4 476.821 208.833 474.488 208.5L477.488 206.5C475.488 204.5 470.654 205 468.488 205.5L470.988 202.5Z" fill="#DEDBDA"/>
<path d="M476.879 193.352C471.714 191.464 464.789 196.159 463.457 198.97L466.034 204.306C469.529 203.038 475.625 206.955 477.972 208.524C478.354 208.1 478.571 205.209 478.19 204.421C479.019 204.009 480.753 205.297 481.516 205.992C480.502 202.98 477.969 200.038 476.829 198.944C477.238 198.272 478.54 199.071 479.141 199.554C479.066 198.184 476.974 196.333 475.937 195.578C475.836 194.456 476.523 193.627 476.879 193.352Z" fill="#7C7C7C"/>
<path d="M426.946 192.307C432.221 190.892 438.812 196.199 439.953 199.121L437.029 204.208C433.629 202.629 427.29 205.983 424.846 207.335C424.494 206.878 424.47 203.975 424.901 203.224C424.103 202.74 422.289 203.866 421.481 204.491C422.693 201.579 425.414 198.875 426.623 197.887C426.26 197.18 424.909 197.859 424.278 198.286C424.444 196.928 426.653 195.271 427.737 194.612C427.913 193.503 427.283 192.613 426.946 192.307Z" fill="#7C7C7C"/>
<path d="M433 224.802C438.413 219.148 449.578 220.759 453 223.487V231.938C447.773 232.534 442.022 241.528 440 245C439.253 244.702 438.133 240.921 438.133 239.681C436.827 239.681 435.411 242.409 434.867 243.773C434.307 239.309 435.722 233.977 436.5 231.869C435.567 231.274 434.4 233.109 433.933 234.101C433.187 232.316 434.711 228.645 435.567 227.034C435.007 225.546 433.622 224.926 433 224.802Z" fill="#F6D5A9"/>
<path d="M473 224.848C467.727 219.137 456.333 220.748 453 223.503V231.987C458.091 232.588 463.303 241.493 465.273 245C466 244.699 468 241.13 468 239.877C469.273 239.877 470.652 242.633 471.182 244.011C471.727 239.502 470.348 234.116 469.591 231.987C470.5 231.386 471.636 233.24 472.091 234.241C472.818 232.438 471.333 228.731 470.5 227.103C471.045 225.6 472.394 224.973 473 224.848Z" fill="#F6D5A9"/>
<path d="M453 232V235C452.667 236.333 450.8 239 446 239" stroke="black"/>
<path d="M453 232V235C453.333 236.333 455.2 239 460 239" stroke="black"/>
<ellipse cx="453" cy="228" rx="6" ry="4" fill="black"/>
<path d="M299.518 308.934C299.518 305.693 302.144 303.067 305.384 303.067H325.446V308.934H299.518V308.934Z" fill="#D69A6E"/>
<rect width="22.4764" height="52.3472" rx="11.2382" transform="matrix(0.976432 -0.215826 0.308931 0.951084 294.804 259.918)" fill="#D69A6E"/>
<path d="M377.303 308.934C377.303 305.693 374.677 303.067 371.437 303.067H351.375V308.934H377.303V308.934Z" fill="#D69A6E"/>
<rect width="22.5856" height="52.6015" rx="11.2928" transform="matrix(-0.976432 -0.215826 -0.308931 0.951084 382.018 259.941)" fill="#D69A6E"/>
<path d="M322.673 201.513C323.753 193.1 330.915 186.8 339.396 186.8V186.8C347.925 186.8 355.11 193.168 356.135 201.635L365.801 281.517C367.53 295.811 356.373 308.4 341.974 308.4H336.226C321.757 308.4 310.578 295.693 312.421 281.343L322.673 201.513Z" fill="#F6D5A9"/>
<path d="M325.446 302.533H318.375C316.422 302.533 313.661 305.399 313.661 308.933H330.161C330.161 305.399 327.399 302.533 325.446 302.533Z" fill="white"/>
<path d="M318.375 308.933C318.375 307.333 318.375 304.667 319.554 304.133" stroke="black"/>
<path d="M324.857 308.933C324.857 307.333 324.857 304.667 323.679 304.133" stroke="black"/>
<path d="M358.446 302.533H351.375C349.422 302.533 346.661 305.399 346.661 308.933H363.161C363.161 305.399 360.399 302.533 358.446 302.533Z" fill="white"/>
<path d="M351.964 308.933C351.964 307.333 351.964 304.667 353.143 304.133" stroke="black"/>
<path d="M358.446 308.933C358.446 307.333 358.446 304.667 357.268 304.133" stroke="black"/>
<path d="M322 242.533C328.855 239.496 336.332 227.156 339.089 218V299.679C333.635 282.999 322.383 242.343 322 242.533Z" fill="#D69A6E"/>
<path d="M355 241.775C348.524 238.698 341.695 227.277 339.089 218V299.6C344.242 282.701 354.638 241.583 355 241.775Z" fill="#D69A6E"/>
<path d="M313.226 160.457C313.226 152.456 317.04 151.047 320.969 152.068C326.47 146.453 330.865 153.521 330.214 158.46C333.921 160.061 333.936 169.69 330.214 170.459C332.685 175.26 331.244 179.127 330.214 180.46C331.45 185.261 329.7 187.795 328.67 188.461C329.906 193.262 328.155 197.129 327.126 198.463C329.597 206.464 327.126 209.798 325.582 210.465C324.346 218.466 319.919 219.132 317.86 218.466C312.918 224.867 309.624 221.133 308.594 218.466C300.873 218.466 300.873 210.465 300.873 208.464C294.695 202.063 297.269 193.796 299.328 190.462C296.857 182.461 302.416 176.46 305.505 174.459C303.034 164.858 309.623 161.124 313.226 160.457Z" fill="#D69A6E"/>
<path d="M360.774 160.457C360.774 152.456 356.96 151.047 353.031 152.068C347.53 146.453 343.135 153.521 343.786 158.46C340.079 160.061 340.064 169.69 343.786 170.459C341.315 175.26 342.756 179.127 343.786 180.46C342.55 185.261 344.3 187.795 345.33 188.461C344.094 193.262 345.845 197.129 346.874 198.463C344.403 206.464 346.874 209.798 348.418 210.465C349.654 218.466 354.081 219.132 356.14 218.466C361.082 224.867 364.376 221.133 365.406 218.466C373.127 218.466 373.127 210.465 373.127 208.464C379.305 202.063 376.731 193.796 374.672 190.462C377.143 182.461 371.584 176.46 368.495 174.459C370.966 164.858 364.377 161.124 360.774 160.457Z" fill="#D69A6E"/>
<path d="M316.63 167.517C311.859 152.399 323.147 137 339 137V137C354.853 137 366.141 152.399 361.37 167.517L351.072 200.151C349.409 205.419 344.524 209 339 209V209C333.476 209 328.591 205.419 326.928 200.151L316.63 167.517Z" fill="#F6D5A9"/>
<circle cx="326" cy="170" r="3" fill="black"/>
<circle cx="352" cy="170" r="3" fill="black"/>
<ellipse cx="339" cy="202" rx="8" ry="4" fill="black"/>
<path d="M531.062 310.417C531.062 305.607 534.961 301.708 539.771 301.708H566.813V310.417H531.062V310.417Z" fill="black"/>
<rect width="31.1048" height="77.1924" rx="15.5524" transform="matrix(0.972835 -0.231499 0.288853 0.957373 524.562 237.659)" fill="black"/>
<path d="M638.312 310.417C638.312 305.607 634.414 301.708 629.604 301.708H602.562V310.417H638.312V310.417Z" fill="#482712"/>
<rect width="31.2559" height="77.5675" rx="15.628" transform="matrix(-0.972835 -0.231499 -0.288853 0.957373 644.812 237.694)" fill="#482712"/>
<path d="M563.171 149.439C564.553 137.85 574.381 129.125 586.052 129.125V129.125C597.782 129.125 607.641 137.937 608.951 149.595L623.939 282.944C625.538 297.171 614.405 309.625 600.089 309.625H571.096C556.714 309.625 545.561 297.063 547.264 282.782L563.171 149.439Z" fill="#9D8E7E"/>
<path d="M566.812 300.917H557.062C554.37 300.917 550.562 305.17 550.562 310.417H573.312C573.312 305.17 569.505 300.917 566.812 300.917Z" fill="white"/>
<path d="M557.062 310.417C557.062 308.042 557.062 304.083 558.688 303.292" stroke="black"/>
<path d="M566 310.417C566 308.042 566 304.083 564.375 303.292" stroke="black"/>
<path d="M612.313 300.917H602.563C599.87 300.917 596.062 305.17 596.062 310.417H618.813C618.813 305.17 615.005 300.917 612.313 300.917Z" fill="white"/>
<path d="M603.375 310.417C603.375 308.042 603.375 304.083 605 303.292" stroke="black"/>
<path d="M612.312 310.417C612.312 308.042 612.312 304.083 610.688 303.292" stroke="black"/>
<path d="M557.484 101.679C560.174 87.9243 572.227 78 586.242 78C600.684 78 612.972 88.5226 615.195 102.793L616.417 110.643C616.8 113.101 616.583 115.615 615.784 117.971L603.84 153.21C601.249 160.856 594.073 166 586 166C577.927 166 570.751 160.856 568.16 153.21L556.362 118.402C555.469 115.77 555.281 112.949 555.814 110.222L557.484 101.679Z" fill="#DEDBDA"/>
<path d="M561 210.417C570.451 205.908 580.76 187.591 584.562 174V295.242C577.042 270.483 561.529 210.134 561 210.417Z" fill="#DEDBDA"/>
<path d="M606.5 209.292C597.571 204.724 588.155 187.77 584.562 174V295.125C591.667 270.04 606.001 209.005 606.5 209.292Z" fill="#DEDBDA"/>
<path d="M575.709 54C580.209 54 579.709 87.9572 579.709 87.9572C568.224 90.849 559.077 112.37 556.928 114.5C546.591 109.873 566.209 54 575.709 54Z" fill="#482712"/>
<path d="M582.946 163.789C586.163 164.753 587.211 162.181 587.333 160.774V116H585.917C585.917 116 583.745 127.002 581.804 133.454C580.1 139.117 576 146.909 576 146.909L578.559 158.966C578.681 160.172 579.729 162.824 582.946 163.789Z" fill="#9D8E7E"/>
<path d="M591.446 163.789C588.43 164.753 587.448 162.181 587.333 160.774V116H588.75C588.75 116 590.591 126.978 592.429 133.454C594.029 139.093 597.958 146.909 597.958 146.909L595.559 158.966C595.445 160.172 594.462 162.824 591.446 163.789Z" fill="#9D8E7E"/>
<path d="M597.016 54C592.516 54 593.016 87.9572 593.016 87.9572C604.502 90.849 613.648 112.37 615.797 114.5C626.134 109.873 606.516 54 597.016 54Z" fill="black"/>
<path d="M587.5 161.387C585.219 164.465 580.417 163 579 158.938L576.521 149" stroke="black"/>
<path d="M586.792 161.387C589.073 164.465 593.875 163 595.292 158.938L597.771 149" stroke="black"/>
<path d="M581.833 157C581.833 155.343 583.176 154 584.833 154H590.167C591.823 154 593.167 155.343 593.167 157V158H581.833V157Z" fill="black"/>
<path d="M592.667 158C592.667 158.899 592.151 159.761 591.219 160.42C590.287 161.078 588.974 161.5 587.5 161.5C586.026 161.5 584.713 161.078 583.781 160.42C582.848 159.761 582.333 158.899 582.333 158C582.333 157.101 582.848 156.239 583.781 155.58C584.713 154.922 586.026 154.5 587.5 154.5C588.974 154.5 590.287 154.922 591.219 155.58C592.151 156.239 592.667 157.101 592.667 158Z" fill="black" stroke="black"/>
<path d="M593 119.396C593 123.337 597.757 126.532 602.081 126.952C607.675 127.495 609 123.337 609 119.396C609 115.454 604.844 111 600.784 111C596.724 111 593 115.454 593 119.396Z" fill="#9D8E7E"/>
<path d="M582 119.921C582 124.108 577.243 127.503 572.919 127.949C567.325 128.526 566 124.108 566 119.921C566 115.733 570.156 111 574.216 111C578.276 111 582 115.733 582 119.921Z" fill="white"/>
<circle cx="575" cy="122" r="3" fill="black"/>
<circle cx="601" cy="122" r="3" fill="black"/>
<path d="M685 310C685 303.925 689.925 299 696 299H729V310H685V310Z" fill="#9E5C40"/>
<rect width="38.3375" height="97.3001" rx="19.1687" transform="matrix(0.971448 -0.237252 0.282043 0.959402 677 218.096)" fill="#9E5C40"/>
<path d="M817 310C817 303.925 812.075 299 806 299H773V310H817V310Z" fill="#9E5C40"/>
<rect width="38.5238" height="97.7728" rx="19.2619" transform="matrix(-0.971448 -0.237252 -0.282043 0.959402 825 218.14)" fill="#9E5C40"/>
<path d="M724.593 106.013C726.25 91.7547 738.327 81 752.681 81V81C767.107 81 779.22 91.8591 780.791 106.199L800.086 282.387C801.641 296.592 790.517 309 776.228 309H727.951C713.598 309 702.454 296.486 704.112 282.229L724.593 106.013Z" fill="#D69A6E"/>
<path d="M724 202C735.632 196.305 748.32 173.168 753 156V309.147C743.745 277.873 724.651 201.643 724 202Z" fill="white"/>
<path d="M780 200.579C769.011 194.809 757.421 173.394 753 156V309C761.744 277.314 779.385 200.217 780 200.579Z" fill="#482712"/>
<path d="M729 298H717C713.686 298 709 303.373 709 310H737C737 303.373 732.314 298 729 298Z" fill="white"/>
<path d="M717 310C717 307 717 302 719 301" stroke="black"/>
<path d="M728 310C728 307 728 302 726 301" stroke="black"/>
<path d="M785 298H773C769.686 298 765 303.373 765 310H793C793 303.373 788.314 298 785 298Z" fill="white"/>
<path d="M774 310C774 307 774 302 776 301" stroke="black"/>
<path d="M785 310C785 307 785 302 783 301" stroke="black"/>
<path d="M792.4 73.4C792.4 94.6077 775.208 111.8 754 111.8C732.792 111.8 715.6 94.6077 715.6 73.4C715.6 52.1923 732.792 35 754 35C775.208 35 792.4 52.1923 792.4 73.4Z" fill="#F6D5A9"/>
<path d="M754 35L754 139C736.688 139 722.734 132.447 714 125.801C712.092 124.35 710.433 122.893 709.043 121.5C707.815 120.269 706.796 119.087 706 118L708 114.75L716 67.1455L754 35Z" fill="#F6D5A9"/>
<path d="M754 139C778.436 139 796.182 126.194 802 118.25L800 115L792 67.1455L754 35L754 139Z" fill="#F6D5A9"/>
<path d="M704 113C705.6 111.8 709.833 105.667 710.5 103C711 107 711.3 114.2 710.5 115C709.7 115.8 705.167 114.5 704 113Z" fill="#F6D5A9"/>
<path d="M802.994 107C801.394 105.8 797.161 99.6667 796.494 97C795.994 101 795.694 108.2 796.494 109C797.294 109.8 801.827 108.5 802.994 107Z" fill="#F6D5A9"/>
<path d="M803.994 113C802.394 111.8 798.161 105.667 797.494 103C796.994 107 796.694 114.2 797.494 115C798.294 115.8 802.827 114.5 803.994 113Z" fill="#F6D5A9"/>
<path d="M705 107C706.6 105.8 710.833 99.6667 711.5 97C712 101 712.3 108.2 711.5 109C710.7 109.8 706.167 108.5 705 107Z" fill="#F6D5A9"/>
<path d="M718 99C716.5 102.5 712 106 708 106" stroke="black"/>
<path d="M717.5 91.5C715.5 94.5 714 95.5 711 96.5" stroke="black"/>
<path d="M718 107C716.167 110 712 111.5 708 111.5" stroke="black"/>
<path d="M789 99C790.5 102.5 795 106 799 106" stroke="black"/>
<path d="M789.5 91.5C791.5 94.5 793 95.5 796 96.5" stroke="black"/>
<path d="M789 107C790.833 110 795 111.5 799 111.5" stroke="black"/>
<path d="M713 32H731.976C739.062 32 742.65 40.5317 737.694 45.5957L718.717 64.9844C713.703 70.1078 705 66.5575 705 59.3887V40C705 35.5817 708.582 32 713 32Z" fill="#482712"/>
<path d="M791 32H772.024C764.938 32 761.35 40.5317 766.306 45.5957L785.283 64.9844C790.297 70.1078 799 66.5575 799 59.3887V40C799 35.5817 795.418 32 791 32Z" fill="#D69A6E"/>
<path d="M751.113 116.789C754.33 117.753 755.378 115.181 755.5 113.774V69H754.083C754.083 69 751.912 80.0019 749.971 86.4543C748.267 92.1167 744.167 99.9087 744.167 99.9087L746.726 111.966C746.848 113.172 747.896 115.824 751.113 116.789Z" fill="#9E5C40"/>
<path d="M759.613 116.789C756.597 117.753 755.614 115.181 755.5 113.774V69H756.917C756.917 69 758.758 79.9782 760.595 86.4543C762.196 92.0932 766.125 99.9087 766.125 99.9087L763.726 111.966C763.612 113.172 762.629 115.824 759.613 116.789Z" fill="white"/>
<path d="M755.5 115.387C753.219 118.465 748.417 117 747 112.938L744.521 103" stroke="black"/>
<path d="M754.792 115.387C757.073 118.465 761.875 117 763.292 112.938L765.771 103" stroke="black"/>
<path d="M749.833 111C749.833 109.343 751.176 108 752.833 108H758.167C759.823 108 761.167 109.343 761.167 111V112H749.833V111Z" fill="black"/>
<path d="M760.667 112C760.667 112.899 760.151 113.761 759.219 114.42C758.287 115.078 756.974 115.5 755.5 115.5C754.026 115.5 752.713 115.078 751.781 114.42C750.848 113.761 750.333 112.899 750.333 112C750.333 111.101 750.848 110.239 751.781 109.58C752.713 108.922 754.026 108.5 755.5 108.5C756.974 108.5 758.287 108.922 759.219 109.58C760.151 110.239 760.667 111.101 760.667 112Z" fill="black" stroke="black"/>
<path d="M761 73.3958C761 77.3371 765.757 80.5322 770.081 80.952C775.675 81.495 777 77.3371 777 73.3958C777 69.4544 772.844 65 768.784 65C764.724 65 761 69.4544 761 73.3958Z" fill="#9E5C40"/>
<path d="M750 73.9205C750 78.1082 745.243 81.5029 740.919 81.949C735.325 82.5259 734 78.1082 734 73.9205C734 69.7328 738.156 65 742.216 65C746.276 65 750 69.7328 750 73.9205Z" fill="white"/>
<circle cx="743" cy="76" r="3" fill="black"/>
<circle cx="769" cy="76" r="3" fill="black"/>
<path d="M22.9556 193.884C25.3451 182.356 50 209.108 50 209.108C40.4424 211.493 32.8316 229.243 31.0433 231C22.4413 227.184 20.5662 205.413 22.9556 193.884Z" fill="white" stroke="#E8904F" stroke-width="2"/>
<path d="M95.0444 193.884C92.6549 182.356 68 209.108 68 209.108C77.5576 211.493 85.1684 229.243 86.9567 231C95.5587 227.184 97.4338 205.413 95.0444 193.884Z" fill="white" stroke="#E8904F" stroke-width="2"/>
<path d="M37 198.243C47.4 193.532 57.3333 194.972 61 196.28V316C57 314.43 51.3333 308.149 49 305.206C48.2 306.776 50 310.439 51 312.075C46.2 309.72 41.6667 303.897 40 301.28C39.2 302.065 40.3333 305.533 41 307.168C35.4 305.598 27.3333 292.776 24 286.561C22.4 286.561 23.3333 291.794 24 294.411C20 291.271 17.6667 280.019 17 274.785C14.6 274.785 14 279.364 14 281.654C10.8 276.944 12 263.336 13 257.121C12.2 255.551 10 258.43 9 260.065C9 250.645 13.6667 238.476 16 233.57C14.4 233.57 12 236.187 11 237.495C11 230.43 21 218.196 26 212.962L21 214.925C23.4 208.644 35.3333 203.149 41 201.186L37 198.243Z" fill="#E8904F"/>
<path d="M84.0769 198.243C74.0769 193.532 64.5256 194.972 61 196.28V316C64.8462 314.43 70.2949 308.149 72.5385 305.206C73.3077 306.776 71.5769 310.439 70.6154 312.075C75.2308 309.72 79.5897 303.897 81.1923 301.28C81.9615 302.065 80.8718 305.533 80.2308 307.168C85.6154 305.598 93.3718 292.776 96.5769 286.561C98.1154 286.561 97.2179 291.794 96.5769 294.411C100.423 291.271 102.667 280.019 103.308 274.785C105.615 274.785 106.192 279.364 106.192 281.654C109.269 276.944 108.115 263.336 107.154 257.121C107.923 255.551 110.038 258.43 111 260.065C111 250.645 106.513 238.476 104.269 233.57C105.808 233.57 108.115 236.187 109.077 237.495C109.077 230.43 99.4615 218.196 94.6538 212.962L99.4615 214.925C97.1538 208.644 85.6795 203.149 80.2308 201.186L84.0769 198.243Z" fill="#E8904F"/>
<path d="M79.8462 198.733C71.2462 194.763 63.0321 195.976 60 197.079V298C63.3077 296.676 67.9936 291.382 69.9231 288.901C70.5846 290.224 69.0962 293.312 68.2692 294.691C72.2385 292.706 75.9872 287.798 77.3654 285.592C78.0269 286.253 77.0897 289.176 76.5385 290.555C81.1692 289.231 87.8397 278.422 90.5962 273.183C91.9192 273.183 91.1474 277.595 90.5962 279.801C93.9038 277.154 95.8333 267.669 96.3846 263.257C98.3692 263.257 98.8654 267.117 98.8654 269.047C101.512 265.077 100.519 253.606 99.6923 248.367C100.354 247.043 102.173 249.47 103 250.848C103 242.907 99.141 232.649 97.2115 228.513C98.5346 228.513 100.519 230.719 101.346 231.822C101.346 225.866 93.0769 215.553 88.9423 211.142L93.0769 212.796C91.0923 207.502 81.2244 202.869 76.5385 201.215L79.8462 198.733Z" fill="#F6D5A9"/>
<path d="M42.3077 198.733C51.7077 194.763 60.6859 195.976 64 197.079V298C60.3846 296.676 55.2628 291.382 53.1538 288.901C52.4308 290.224 54.0577 293.312 54.9615 294.691C50.6231 292.706 46.5256 287.798 45.0192 285.592C44.2962 286.253 45.3205 289.176 45.9231 290.555C40.8615 289.231 33.5705 278.422 30.5577 273.183C29.1115 273.183 29.9551 277.595 30.5577 279.801C26.9423 277.154 24.8333 267.669 24.2308 263.257C22.0615 263.257 21.5192 267.117 21.5192 269.047C18.6269 265.077 19.7115 253.606 20.6154 248.367C19.8923 247.043 17.9038 249.47 17 250.848C17 242.907 21.2179 232.649 23.3269 228.513C21.8808 228.513 19.7115 230.719 18.8077 231.822C18.8077 225.866 27.8462 215.553 32.3654 211.142L27.8462 212.796C30.0154 207.502 40.8013 202.869 45.9231 201.215L42.3077 198.733Z" fill="#F6D5A9"/>
<path d="M75.8462 203.064C69.8462 200.066 64.1154 200.982 62 201.815V278C64.3077 277.001 67.5769 273.004 68.9231 271.131C69.3846 272.13 68.3462 274.461 67.7692 275.502C70.5385 274.003 73.1538 270.298 74.1154 268.633C74.5769 269.132 73.9231 271.339 73.5385 272.38C76.7692 271.381 81.4231 263.221 83.3462 259.266C84.2692 259.266 83.7308 262.596 83.3462 264.262C85.6538 262.263 87 255.103 87.3846 251.772C88.7692 251.772 89.1154 254.686 89.1154 256.143C90.9615 253.146 90.2692 244.487 89.6923 240.532C90.1538 239.533 91.4231 241.364 92 242.405C92 236.41 89.3077 228.667 87.9615 225.544C88.8846 225.544 90.2692 227.21 90.8462 228.042C90.8462 223.546 85.0769 215.761 82.1923 212.43L85.0769 213.679C83.6923 209.683 76.8077 206.186 73.5385 204.937L75.8462 203.064Z" fill="#FCEEC0"/>
<path d="M46.9231 203.064C54.3231 200.066 61.391 200.982 64 201.815V278C61.1538 277.001 57.1218 273.004 55.4615 271.131C54.8923 272.13 56.1731 274.461 56.8846 275.502C53.4692 274.003 50.2436 270.298 49.0577 268.633C48.4885 269.132 49.2949 271.339 49.7692 272.38C45.7846 271.381 40.0449 263.221 37.6731 259.266C36.5346 259.266 37.1987 262.596 37.6731 264.262C34.8269 262.263 33.1667 255.103 32.6923 251.772C30.9846 251.772 30.5577 254.686 30.5577 256.143C28.2808 253.146 29.1346 244.487 29.8462 240.532C29.2769 239.533 27.7115 241.364 27 242.405C27 236.41 30.3205 228.667 31.9808 225.544C30.8423 225.544 29.1346 227.21 28.4231 228.042C28.4231 223.546 35.5385 215.761 39.0962 212.43L35.5385 213.679C37.2462 209.683 45.7372 206.186 49.7692 204.937L46.9231 203.064Z" fill="#FCEEC0"/>
<circle cx="60" cy="239" r="10" fill="white"/>
<path d="M60.7559 238.127C60.3572 238.588 59.6428 238.588 59.2441 238.127L53.6387 231.655C53.0779 231.007 53.5379 230 54.3947 230L65.6053 230C66.4621 230 66.9221 231.007 66.3613 231.655L60.7559 238.127Z" fill="black"/>
<path d="M60 237V239.667C60 240.333 58.1333 243 56 243" stroke="black"/>
<path d="M60 237V239.667C60 240.333 61.8667 243 64 243" stroke="black"/>
<path d="M48.6991 299.945H37.2707C34.1148 299.945 29.6517 304.038 29.6517 309.086H56.318C56.318 304.038 51.8549 299.945 48.6991 299.945Z" fill="white"/>
<path d="M36.3182 309.086C36.3182 306.344 36.3182 301.773 38.5404 300.859" stroke="black"/>
<path d="M48.5404 309.086C48.5404 306.344 48.5404 301.773 46.3182 300.859" stroke="black"/>
<path d="M84.9402 299.945H73.5118C70.3559 299.945 65.8928 304.038 65.8928 309.086H92.5591C92.5591 304.038 88.096 299.945 84.9402 299.945Z" fill="white"/>
<path d="M72.5593 309.086C72.5593 306.344 72.5593 301.773 74.7815 300.859" stroke="black"/>
<path d="M84.7815 309.086C84.7815 306.344 84.7815 301.773 82.5593 300.859" stroke="black"/>
<circle cx="47" cy="225" r="3" fill="black"/>
<circle cx="73" cy="225" r="3" fill="black"/>
<path d="M1256.86 314.227C1256.86 312.305 1258.42 310.747 1260.34 310.747H1269.71V314.227H1256.86V314.227Z" fill="#D69A6E"/>
<rect width="11.4943" height="33.8588" rx="5.74714" transform="matrix(0.960404 -0.278613 0.240242 0.970713 1254.36 282.243)" fill="#D69A6E"/>
<path d="M1321.5 314.227C1321.5 312.305 1319.94 310.747 1318.02 310.747H1308.64V314.227H1321.5V314.227Z" fill="#D69A6E"/>
<rect width="11.4943" height="33.8588" rx="5.74714" transform="matrix(-0.960404 -0.278613 -0.240242 0.970713 1323.89 282.243)" fill="#D69A6E"/>
<rect x="1260.07" y="257" width="57.1429" height="57.2267" rx="28.5714" fill="#F6D5A9"/>
<path d="M1276.14 309.587H1271.86C1270.67 309.587 1269 311.664 1269 314.227H1279C1279 311.664 1277.33 309.587 1276.14 309.587Z" fill="white"/>
<path d="M1271.86 314.227C1271.86 313.067 1271.86 311.134 1272.57 310.747" stroke="black"/>
<path d="M1275.79 314.227C1275.79 313.067 1275.79 311.134 1275.07 310.747" stroke="black"/>
<path d="M1306.5 309.587H1302.21C1301.03 309.587 1299.36 311.664 1299.36 314.227H1309.36C1309.36 311.664 1307.68 309.587 1306.5 309.587Z" fill="white"/>
<path d="M1302.57 314.227C1302.57 313.067 1302.57 311.134 1303.29 310.747" stroke="black"/>
<path d="M1306.5 314.227C1306.5 313.067 1306.5 311.134 1305.79 310.747" stroke="black"/>
<ellipse cx="1289" cy="268" rx="32" ry="29" fill="#F6D5A9"/>
<path fill-rule="evenodd" clip-rule="evenodd" d="M1275.08 257.31C1274.42 257.714 1273.8 258.086 1273.27 258.423L1272.73 257.576C1273.29 257.226 1273.92 256.845 1274.6 256.434C1277.03 254.956 1280.09 253.098 1282.74 250.962C1284.43 249.6 1285.93 248.145 1286.97 246.631C1288.02 245.117 1288.59 243.579 1288.49 242.032L1289.49 241.968C1289.61 243.813 1288.92 245.573 1287.8 247.198C1286.68 248.824 1285.1 250.348 1283.37 251.741C1280.66 253.923 1277.52 255.83 1275.08 257.31Z" fill="black"/>
<path fill-rule="evenodd" clip-rule="evenodd" d="M1302.92 257.31C1303.58 257.714 1304.2 258.086 1304.73 258.423L1305.27 257.576C1304.71 257.226 1304.08 256.845 1303.4 256.434C1300.97 254.956 1297.91 253.098 1295.26 250.962C1293.57 249.6 1292.07 248.145 1291.03 246.631C1289.98 245.117 1289.41 243.579 1289.51 242.032L1288.51 241.968C1288.39 243.813 1289.08 245.573 1290.2 247.198C1291.32 248.824 1292.9 250.348 1294.63 251.741C1297.34 253.923 1300.48 255.83 1302.92 257.31Z" fill="black"/>
<path d="M1267.99 279.351C1270.64 267.269 1283.1 265.638 1289 265V295.632C1285.6 295.632 1282.55 294.782 1281.45 294.356C1280.27 295.845 1274.27 297 1272.48 297C1270.54 297 1264.69 294.455 1267.99 279.351Z" fill="white"/>
<path d="M1310.03 279.351C1307.38 267.269 1294.91 265.638 1289 265V295.632C1292.4 295.632 1295.46 294.782 1296.56 294.356C1297.74 295.845 1302.81 297 1305.54 297C1307.25 297 1313.34 294.455 1310.03 279.351Z" fill="white"/>
<path d="M1276 264C1276 267.314 1273.31 270 1270 270C1266.69 270 1264 267.314 1264 264C1264 260.686 1266.69 258 1270 258C1273.31 258 1276 260.686 1276 264Z" fill="black"/>
<path d="M1270 261C1270 261.552 1269.55 262 1269 262C1268.45 262 1268 261.552 1268 261C1268 260.448 1268.45 260 1269 260C1269.55 260 1270 260.448 1270 261Z" fill="white"/>
<path d="M1270 261C1270 261.552 1269.55 262 1269 262C1268.45 262 1268 261.552 1268 261C1268 260.448 1268.45 260 1269 260C1269.55 260 1270 260.448 1270 261Z" fill="white"/>
<path d="M1315 264C1315 267.314 1312.31 270 1309 270C1305.69 270 1303 267.314 1303 264C1303 260.686 1305.69 258 1309 258C1312.31 258 1315 260.686 1315 264Z" fill="black"/>
<path d="M1309 261C1309 261.552 1308.55 262 1308 262C1307.45 262 1307 261.552 1307 261C1307 260.448 1307.45 260 1308 260C1308.55 260 1309 260.448 1309 261Z" fill="white"/>
<path d="M1309 261C1309 261.552 1308.55 262 1308 262C1307.45 262 1307 261.552 1307 261C1307 260.448 1307.45 260 1308 260C1308.55 260 1309 260.448 1309 261Z" fill="white"/>
<path d="M855.964 309.475C855.964 304.843 859.72 301.087 864.352 301.087H892.107V309.475H855.964V309.475Z" fill="#D69A6E"/>
<rect width="31.3687" height="74.6635" rx="15.6843" transform="matrix(0.975253 -0.221094 0.301919 0.953334 849.393 239.398)" fill="#D69A6E"/>
<path d="M964.393 309.475C964.393 304.843 960.638 301.087 956.005 301.087H928.25V309.475H964.393V309.475Z" fill="#D69A6E"/>
<rect width="31.5211" height="75.0263" rx="15.7605" transform="matrix(-0.975252 -0.221094 -0.301919 0.953334 970.964 239.432)" fill="#D69A6E"/>
<path d="M888.306 155.381C889.774 143.658 899.74 134.862 911.554 134.862V134.862C923.433 134.862 933.431 143.751 934.823 155.547L949.73 281.9C951.413 296.171 940.264 308.712 925.895 308.712H896.3C881.862 308.712 870.692 296.057 872.486 281.731L888.306 155.381Z" fill="#F6D5A9"/>
<path d="M888 227.125C897.555 222.783 907.977 205.14 911.821 192.05V308.825C904.219 284.978 888.534 226.853 888 227.125Z" fill="#FCEEC0"/>
<path d="M934 226.041C924.973 221.642 915.453 205.313 911.821 192.05V308.712C919.004 284.552 933.495 225.766 934 226.041Z" fill="#FCEEC0"/>
<path d="M892.107 300.325H882.25C879.528 300.325 875.678 304.422 875.678 309.475H898.678C898.678 304.422 894.829 300.325 892.107 300.325Z" fill="#FCEEC0"/>
<path d="M882.25 309.475C882.25 307.188 882.25 303.375 883.893 302.613" stroke="black"/>
<path d="M891.286 309.475C891.286 307.188 891.286 303.375 889.643 302.613" stroke="black"/>
<path d="M938.107 300.325H928.25C925.528 300.325 921.678 304.422 921.678 309.475H944.678C944.678 304.422 940.829 300.325 938.107 300.325Z" fill="#FCEEC0"/>
<path d="M929.071 309.475C929.071 307.188 929.071 303.375 930.714 302.613" stroke="black"/>
<path d="M938.107 309.475C938.107 307.188 938.107 303.375 936.464 302.613" stroke="black"/>
<path d="M876.184 115.531C872.931 94.2102 889.432 75 911 75V75C932.568 75 949.069 94.2102 945.816 115.531L940.768 148.62C938.98 160.341 928.9 169 917.042 169H904.958C893.1 169 883.02 160.341 881.232 148.62L876.184 115.531Z" fill="#FCEEC0"/>
<ellipse cx="887.649" cy="83.3717" rx="7.53545" ry="7.37174" fill="#D69A6E"/>
<ellipse cx="866.55" cy="109.91" rx="10.5496" ry="10.3204" fill="#D69A6E"/>
<path d="M859.014 102.538L881.621 78.9487L895 85L882.684 138.5L859.014 102.538Z" fill="#D69A6E"/>
<path d="M856.184 135L856 109.91L875.684 115L882.684 134.5L856.184 135Z" fill="#D69A6E"/>
<ellipse cx="869.685" cy="135" rx="13.5" ry="13" fill="#D69A6E"/>
<ellipse rx="7.53545" ry="7.37174" transform="matrix(-1 0 0 1 934.535 83.3717)" fill="#D69A6E"/>
<ellipse rx="10.5496" ry="10.3204" transform="matrix(-1 0 0 1 955.634 109.91)" fill="#D69A6E"/>
<path d="M963.17 102.538L940.564 78.9487L927.184 85L939.5 138.5L963.17 102.538Z" fill="#D69A6E"/>
<path d="M966 135L966.184 109.91L946.5 115L939.5 134.5L966 135Z" fill="#D69A6E"/>
<ellipse rx="13.5" ry="13" transform="matrix(-1 0 0 1 952.5 135)" fill="#D69A6E"/>
<circle cx="897.5" cy="122" r="3" fill="black"/>
<circle cx="923.5" cy="122" r="3" fill="black"/>
<path d="M910.5 152V160" stroke="black"/>
<path d="M899.5 156C899.5 161 907.145 163.143 910.5 160" stroke="black"/>
<path d="M921.5 156C921.5 161 914.113 163.143 910.5 160" stroke="black"/>
<ellipse cx="910.5" cy="151" rx="8" ry="5" fill="black"/>
<path d="M1288 264C1282.23 264.62 1269.59 266.253 1267 278" stroke="black"/>
<path d="M1278.5 292.5C1279.32 293.222 1282.96 295 1288 295" stroke="black"/>
<path d="M1297.5 292.5C1296.77 293.222 1292.48 295 1288 295" stroke="black"/>
<path d="M1288 269V274" stroke="black"/>
<path d="M1288 274C1285.17 274 1282.88 276.006 1282.88 278.48C1282.88 281.094 1277.36 284.081 1275 279.974" stroke="black"/>
<path d="M1288 274C1290.83 274 1293.12 276.006 1293.12 278.48C1293.12 281.094 1298.64 284.081 1301 279.974" stroke="black"/>
<path d="M1288 264C1293.9 264.62 1306.36 266.253 1309 278" stroke="black"/>
<path d="M1271.48 296C1273.27 296 1279.27 294.845 1280.45 293.356" stroke="black"/>
<path d="M1304.97 296C1303.18 296 1297.18 294.845 1296 293.356" stroke="black"/>
<ellipse cx="1288" cy="266" rx="7" ry="3" fill="black"/>
<path d="M1260 237H1274.34C1277.91 237 1279.69 241.309 1277.17 243.828L1262.83 258.172C1260.31 260.691 1256 258.907 1256 255.343V241C1256 238.791 1257.79 237 1260 237Z" fill="#482712"/>
<path d="M1318 237H1303.66C1300.09 237 1298.31 241.309 1300.83 243.828L1315.17 258.172C1317.69 260.691 1322 258.907 1322 255.343V241C1322 238.791 1320.21 237 1318 237Z" fill="#482712"/>
</svg>
