<svg width="465" height="79" viewBox="0 0 465 79" fill="none" xmlns="http://www.w3.org/2000/svg">
<path d="M313.001 78.474C313.001 77.1664 314.061 76.1064 315.368 76.1064H321.529V78.474H313.001Z" fill="#482712"/>
<rect width="7.63994" height="23.0023" rx="3.81997" transform="matrix(0.958475 -0.285175 0.234576 0.972098 311.343 56.7144)" fill="#482712"/>
<path d="M355.881 78.474C355.881 77.1664 354.821 76.1064 353.513 76.1064H347.352V78.474H355.881Z" fill="#482712"/>
<rect width="7.63994" height="23.0023" rx="3.81997" transform="matrix(-0.958475 -0.285175 -0.234576 0.972098 357.465 56.7144)" fill="#482712"/>
<rect x="315.133" y="39.541" width="37.905" height="38.9329" rx="18.9525" fill="#F6D5A9"/>
<path d="M325.794 75.3174H322.951C322.166 75.3174 321.056 76.7307 321.056 78.4741H327.689C327.689 76.7307 326.579 75.3174 325.794 75.3174Z" fill="white"/>
<path d="M322.951 78.474C322.951 77.6848 322.951 76.3695 323.425 76.1064" stroke="black"/>
<path d="M325.557 78.474C325.557 77.6848 325.557 76.3695 325.083 76.1064" stroke="black"/>
<path d="M345.931 75.3174H343.088C342.303 75.3174 341.193 76.7307 341.193 78.4741H347.826C347.826 76.7307 346.716 75.3174 345.931 75.3174Z" fill="white"/>
<path d="M343.325 78.474C343.325 77.6848 343.325 76.3695 343.799 76.1064" stroke="black"/>
<path d="M345.931 78.474C345.931 77.6848 345.931 76.3695 345.457 76.1064" stroke="black"/>
<ellipse cx="334.322" cy="47.0244" rx="21.2268" ry="19.7295" fill="#F6D5A9"/>
<path d="M316.432 25.9346H321.519C325.058 25.9346 326.854 30.1929 324.383 32.727L319.296 37.944C316.791 40.513 312.432 38.7396 312.432 35.1516V29.9346C312.432 27.7254 314.223 25.9346 316.432 25.9346Z" fill="#482712"/>
<path d="M352.213 25.9346H347.126C343.587 25.9346 341.791 30.1929 344.262 32.727L349.349 37.944C351.854 40.513 356.213 38.7396 356.213 35.1516V29.9346C356.213 27.7254 354.422 25.9346 352.213 25.9346Z" fill="#482712"/>
<path d="M320.387 54.7475C322.141 46.5273 330.408 45.4181 334.322 44.9839V65.824C332.068 65.824 330.043 65.2451 329.312 64.9557C328.529 65.9687 324.552 66.7544 323.362 66.7544C322.074 66.7544 318.195 65.0228 320.387 54.7475Z" fill="white"/>
<path d="M348.273 54.7475C346.518 46.5273 338.241 45.4181 334.322 44.9839V65.824C336.58 65.824 338.607 65.2451 339.338 64.9557C340.122 65.9687 343.48 66.7544 345.295 66.7544C346.429 66.7544 350.468 65.0228 348.273 54.7475Z" fill="white"/>
<path d="M334.322 44.9839C330.493 45.406 322.108 46.5165 320.392 54.5085" stroke="black"/>
<path d="M328.021 64.373C328.568 64.8644 330.979 66.0739 334.322 66.0739" stroke="black"/>
<path d="M340.624 64.373C340.138 64.8644 337.294 66.0739 334.322 66.0739" stroke="black"/>
<path d="M334.322 48.3857V51.7874" stroke="black"/>
<path d="M334.322 51.7871C332.446 51.7871 330.925 53.1518 330.925 54.8353C330.925 56.6134 327.267 58.6455 325.699 55.8513" stroke="black"/>
<path d="M334.322 51.7871C336.198 51.7871 337.719 53.1518 337.719 54.8353C337.719 56.6134 341.378 58.6455 342.946 55.8513" stroke="black"/>
<path d="M334.322 44.9839C338.235 45.406 346.499 46.5165 348.252 54.5085" stroke="black"/>
<path d="M323.362 66.7543C324.552 66.7543 328.529 65.9686 329.312 64.9556" stroke="black"/>
<path d="M345.579 66.7543C344.389 66.7543 340.412 65.9686 339.629 64.9556" stroke="black"/>
<ellipse cx="334.322" cy="46.3442" rx="4.64337" ry="2.04098" fill="black"/>
<path d="M323.709 39.9946C327.072 38.7326 334.603 36.3372 334.314 33.6449" stroke="black"/>
<path d="M344.936 39.9946C341.573 38.7326 334.042 36.3372 334.33 33.6449" stroke="black"/>
<ellipse cx="321.719" cy="44.3032" rx="3.98003" ry="4.08197" fill="black"/>
<ellipse cx="321.056" cy="42.2624" rx="0.663338" ry="0.680328" fill="white"/>
<ellipse cx="321.056" cy="42.2624" rx="0.663338" ry="0.680328" fill="white"/>
<ellipse cx="347.589" cy="44.3032" rx="3.98003" ry="4.08197" fill="black"/>
<ellipse cx="346.926" cy="42.2624" rx="0.663338" ry="0.680328" fill="white"/>
<ellipse cx="346.926" cy="42.2624" rx="0.663338" ry="0.680328" fill="white"/>
<path d="M24.0656 27.9673C23.9456 27.9673 23.8436 27.9313 23.7596 27.8593C23.6876 27.7753 23.6516 27.6733 23.6516 27.5533V16.9693H20.1956C20.0756 16.9693 19.9736 16.9333 19.8896 16.8613C19.8176 16.7773 19.7816 16.6753 19.7816 16.5553V15.7993C19.7816 15.6673 19.8176 15.5653 19.8896 15.4933C19.9736 15.4093 20.0756 15.3673 20.1956 15.3673H28.8716C29.0036 15.3673 29.1056 15.4093 29.1776 15.4933C29.2616 15.5653 29.3036 15.6673 29.3036 15.7993V16.5553C29.3036 16.6753 29.2616 16.7773 29.1776 16.8613C29.1056 16.9333 29.0036 16.9693 28.8716 16.9693H25.4336V27.5533C25.4336 27.6733 25.3916 27.7753 25.3076 27.8593C25.2356 27.9313 25.1336 27.9673 25.0016 27.9673H24.0656Z" fill="#F6D5A9"/>
<path d="M47.6361 27.9673C47.5041 27.9673 47.4021 27.9313 47.3301 27.8593C47.2581 27.7753 47.2221 27.6733 47.2221 27.5533V15.7993C47.2221 15.6673 47.2581 15.5653 47.3301 15.4933C47.4021 15.4093 47.5041 15.3673 47.6361 15.3673H48.5541C48.6861 15.3673 48.7881 15.4093 48.8601 15.4933C48.9441 15.5653 48.9861 15.6673 48.9861 15.7993V20.7673H55.1781V15.7993C55.1781 15.6673 55.2141 15.5653 55.2861 15.4933C55.3701 15.4093 55.4721 15.3673 55.5921 15.3673H56.5101C56.6421 15.3673 56.7441 15.4093 56.8161 15.4933C56.9001 15.5653 56.9421 15.6673 56.9421 15.7993V27.5533C56.9421 27.6733 56.9001 27.7753 56.8161 27.8593C56.7441 27.9313 56.6421 27.9673 56.5101 27.9673H55.5921C55.4721 27.9673 55.3701 27.9313 55.2861 27.8593C55.2141 27.7753 55.1781 27.6733 55.1781 27.5533V22.3873H48.9861V27.5533C48.9861 27.6733 48.9441 27.7753 48.8601 27.8593C48.7881 27.9313 48.6861 27.9673 48.5541 27.9673H47.6361Z" fill="#F6D5A9"/>
<path d="M73.8008 27.9673C73.6688 27.9673 73.5668 27.9313 73.4948 27.8593C73.4228 27.7753 73.3868 27.6733 73.3868 27.5533V15.7993C73.3868 15.6673 73.4228 15.5653 73.4948 15.4933C73.5668 15.4093 73.6688 15.3673 73.8008 15.3673H81.2348C81.3668 15.3673 81.4688 15.4093 81.5408 15.4933C81.6128 15.5653 81.6488 15.6673 81.6488 15.7993V16.4833C81.6488 16.6153 81.6128 16.7173 81.5408 16.7893C81.4688 16.8613 81.3668 16.8973 81.2348 16.8973H75.1148V20.8393H80.8388C80.9708 20.8393 81.0728 20.8813 81.1448 20.9653C81.2168 21.0373 81.2528 21.1393 81.2528 21.2713V21.9373C81.2528 22.0573 81.2168 22.1593 81.1448 22.2433C81.0728 22.3153 80.9708 22.3513 80.8388 22.3513H75.1148V26.4373H81.3788C81.5108 26.4373 81.6128 26.4733 81.6848 26.5453C81.7568 26.6173 81.7928 26.7193 81.7928 26.8513V27.5533C81.7928 27.6733 81.7568 27.7753 81.6848 27.8593C81.6128 27.9313 81.5108 27.9673 81.3788 27.9673H73.8008Z" fill="#F6D5A9"/>
<path d="M22.1522 68.7788C21.9122 68.7788 21.6962 68.6948 21.5042 68.5268C21.3122 68.3348 21.2162 68.1068 21.2162 67.8428V44.5148C21.2162 44.2508 21.3122 44.0348 21.5042 43.8668C21.6962 43.6748 21.9122 43.5788 22.1522 43.5788H28.2722C28.5362 43.5788 28.7522 43.6748 28.9202 43.8668C29.1122 44.0348 29.2082 44.2508 29.2082 44.5148V67.8428C29.2082 68.1068 29.1122 68.3348 28.9202 68.5268C28.7522 68.6948 28.5362 68.7788 28.2722 68.7788H22.1522Z" fill="#F6D5A9"/>
<path d="M65.6401 68.7788C65.4001 68.7788 65.1841 68.6948 64.9921 68.5268C64.8001 68.3348 64.7041 68.1068 64.7041 67.8428V44.5148C64.7041 44.2508 64.8001 44.0348 64.9921 43.8668C65.1841 43.6748 65.4001 43.5788 65.6401 43.5788H70.4281C70.8601 43.5788 71.1721 43.6868 71.3641 43.9028C71.5561 44.0948 71.6881 44.2388 71.7601 44.3348L79.1761 56.2508V44.5148C79.1761 44.2508 79.2721 44.0348 79.4641 43.8668C79.6561 43.6748 79.8721 43.5788 80.1121 43.5788H85.5481C85.8121 43.5788 86.0281 43.6748 86.1961 43.8668C86.3881 44.0348 86.4841 44.2508 86.4841 44.5148V67.8428C86.4841 68.1068 86.3881 68.3348 86.1961 68.5268C86.0281 68.6948 85.8121 68.7788 85.5481 68.7788H80.7961C80.3401 68.7788 80.0161 68.6828 79.8241 68.4908C79.6321 68.2748 79.5001 68.1188 79.4281 68.0228L72.0121 56.7908V67.8428C72.0121 68.1068 71.9161 68.3348 71.7241 68.5268C71.5561 68.6948 71.3401 68.7788 71.0761 68.7788H65.6401Z" fill="#F6D5A9"/>
<path d="M125.232 68.7788C124.8 68.7788 124.452 68.6588 124.188 68.4188C123.948 68.1788 123.792 67.9268 123.72 67.6628L116.628 44.6228C116.604 44.5268 116.592 44.4428 116.592 44.3708C116.592 44.1548 116.664 43.9748 116.808 43.8308C116.976 43.6628 117.168 43.5788 117.384 43.5788H122.964C123.396 43.5788 123.732 43.6988 123.972 43.9388C124.212 44.1788 124.368 44.4188 124.44 44.6588L128.688 59.6708L132.936 44.6588C133.008 44.4188 133.164 44.1788 133.404 43.9388C133.644 43.6988 133.98 43.5788 134.412 43.5788H139.992C140.208 43.5788 140.388 43.6628 140.532 43.8308C140.676 43.9748 140.748 44.1548 140.748 44.3708C140.748 44.4428 140.736 44.5268 140.712 44.6228L133.656 67.6628C133.584 67.9268 133.416 68.1788 133.152 68.4188C132.912 68.6588 132.564 68.7788 132.108 68.7788H125.232Z" fill="#F6D5A9"/>
<path d="M170.178 68.7788C169.938 68.7788 169.722 68.6948 169.53 68.5268C169.338 68.3348 169.242 68.1068 169.242 67.8428V44.5148C169.242 44.2508 169.338 44.0348 169.53 43.8668C169.722 43.6748 169.938 43.5788 170.178 43.5788H187.818C188.082 43.5788 188.31 43.6748 188.502 43.8668C188.694 44.0348 188.79 44.2508 188.79 44.5148V48.7628C188.79 49.0028 188.694 49.2188 188.502 49.4108C188.31 49.6028 188.082 49.6988 187.818 49.6988H176.694V53.2628H187.026C187.29 53.2628 187.518 53.3588 187.71 53.5508C187.902 53.7188 187.998 53.9348 187.998 54.1988V58.0868C187.998 58.3508 187.902 58.5788 187.71 58.7708C187.518 58.9388 187.29 59.0228 187.026 59.0228H176.694V62.6588H188.106C188.37 62.6588 188.598 62.7548 188.79 62.9468C188.982 63.1388 189.078 63.3668 189.078 63.6308V67.8428C189.078 68.1068 188.982 68.3348 188.79 68.5268C188.598 68.6948 188.37 68.7788 188.106 68.7788H170.178Z" fill="#F6D5A9"/>
<path d="M218.871 68.7788C218.631 68.7788 218.415 68.6948 218.223 68.5268C218.031 68.3348 217.935 68.1068 217.935 67.8428V44.5148C217.935 44.2508 218.031 44.0348 218.223 43.8668C218.415 43.6748 218.631 43.5788 218.871 43.5788H223.659C224.091 43.5788 224.403 43.6868 224.595 43.9028C224.787 44.0948 224.919 44.2388 224.991 44.3348L232.407 56.2508V44.5148C232.407 44.2508 232.503 44.0348 232.695 43.8668C232.887 43.6748 233.103 43.5788 233.343 43.5788H238.779C239.043 43.5788 239.259 43.6748 239.427 43.8668C239.619 44.0348 239.715 44.2508 239.715 44.5148V67.8428C239.715 68.1068 239.619 68.3348 239.427 68.5268C239.259 68.6948 239.043 68.7788 238.779 68.7788H234.027C233.571 68.7788 233.247 68.6828 233.055 68.4908C232.863 68.2748 232.731 68.1188 232.659 68.0228L225.243 56.7908V67.8428C225.243 68.1068 225.147 68.3348 224.955 68.5268C224.787 68.6948 224.571 68.7788 224.307 68.7788H218.871Z" fill="#F6D5A9"/>
<path d="M275.939 68.7788C275.675 68.7788 275.447 68.6948 275.255 68.5268C275.087 68.3348 275.003 68.1068 275.003 67.8428V50.2748H268.811C268.547 50.2748 268.319 50.1908 268.127 50.0228C267.959 49.8308 267.875 49.6028 267.875 49.3388V44.5148C267.875 44.2508 267.959 44.0348 268.127 43.8668C268.319 43.6748 268.547 43.5788 268.811 43.5788H289.043C289.307 43.5788 289.523 43.6748 289.691 43.8668C289.883 44.0348 289.979 44.2508 289.979 44.5148V49.3388C289.979 49.6028 289.883 49.8308 289.691 50.0228C289.523 50.1908 289.307 50.2748 289.043 50.2748H282.851V67.8428C282.851 68.1068 282.755 68.3348 282.563 68.5268C282.395 68.6948 282.179 68.7788 281.915 68.7788H275.939Z" fill="#F6D5A9"/>
<path d="M380.153 68.7788C379.913 68.7788 379.697 68.6948 379.505 68.5268C379.313 68.3348 379.217 68.1068 379.217 67.8428V44.5148C379.217 44.2508 379.313 44.0348 379.505 43.8668C379.697 43.6748 379.913 43.5788 380.153 43.5788H390.413C393.677 43.5788 396.233 44.3228 398.081 45.8108C399.953 47.2988 400.889 49.3748 400.889 52.0388C400.889 53.7188 400.505 55.1468 399.737 56.3228C398.969 57.4988 397.961 58.4228 396.713 59.0948L401.393 67.5908C401.465 67.7348 401.501 67.8668 401.501 67.9868C401.501 68.2028 401.429 68.3948 401.285 68.5628C401.141 68.7068 400.961 68.7788 400.745 68.7788H394.661C394.205 68.7788 393.857 68.6708 393.617 68.4548C393.377 68.2148 393.221 67.9988 393.149 67.8068L389.549 60.3908H386.957V67.8428C386.957 68.1068 386.861 68.3348 386.669 68.5268C386.501 68.6948 386.285 68.7788 386.021 68.7788H380.153ZM386.957 54.4508H390.377C391.217 54.4508 391.841 54.2228 392.249 53.7668C392.657 53.2868 392.861 52.6988 392.861 52.0028C392.861 51.2828 392.657 50.6708 392.249 50.1668C391.865 49.6628 391.241 49.4108 390.377 49.4108H386.957V54.4508Z" fill="#F6D5A9"/>
<path d="M436.854 68.7788C436.59 68.7788 436.362 68.6948 436.17 68.5268C436.002 68.3348 435.918 68.1068 435.918 67.8428V60.4268L427.71 44.6948C427.686 44.6468 427.662 44.5988 427.638 44.5508C427.614 44.4788 427.602 44.4188 427.602 44.3708C427.602 44.1548 427.674 43.9748 427.818 43.8308C427.986 43.6628 428.178 43.5788 428.394 43.5788H434.01C434.442 43.5788 434.766 43.6868 434.982 43.9028C435.198 44.1188 435.342 44.2868 435.414 44.4068L439.806 52.6868L444.198 44.4068C444.246 44.2868 444.378 44.1188 444.594 43.9028C444.81 43.6868 445.134 43.5788 445.566 43.5788H451.218C451.41 43.5788 451.578 43.6628 451.722 43.8308C451.89 43.9748 451.974 44.1548 451.974 44.3708C451.974 44.4188 451.962 44.4788 451.938 44.5508C451.938 44.5988 451.926 44.6468 451.902 44.6948L443.658 60.4268V67.8428C443.658 68.1068 443.562 68.3348 443.37 68.5268C443.202 68.6948 442.986 68.7788 442.722 68.7788H436.854Z" fill="#F6D5A9"/>
</svg>
